<svg xmlns="http://www.w3.org/2000/svg" xmlns:xlink="http://www.w3.org/1999/xlink" width="18" height="18" viewBox="0 0 18 18">
  <defs>
    <clipPath id="clip-logo-javascript">
      <rect width="18" height="18"/>
    </clipPath>
  </defs>
  <g id="logo-javascript" clip-path="url(#clip-logo-javascript)">
    <rect width="18" height="18" fill="#f7df1e"/>
    <path id="Path_4" data-name="Path 4" d="M169.645,288.908a.943.943,0,0,0,.854.526c.359,0,.588-.179.588-.427,0-.3-.236-.4-.631-.575l-.217-.093c-.625-.266-1.04-.6-1.04-1.3a1.157,1.157,0,0,1,1.268-1.144,1.28,1.28,0,0,1,1.232.693l-.674.433a.589.589,0,0,0-.557-.371.377.377,0,0,0-.414.371c0,.26.161.365.533.526l.217.093c.736.316,1.151.637,1.151,1.361,0,.78-.613,1.207-1.435,1.207a1.664,1.664,0,0,1-1.578-.886Zm-3.059.075c.136.241.26.445.557.445s.464-.111.464-.544V285.94h.866V288.9a1.176,1.176,0,0,1-1.293,1.305,1.345,1.345,0,0,1-1.3-.791Z" transform="translate(-159.917 -279.046)"/>
    <circle id="Ellipse_1" data-name="Ellipse 1" cx="9" cy="9" r="9" fill="none"/>
  </g>
</svg>
