<svg xmlns="http://www.w3.org/2000/svg" xmlns:xlink="http://www.w3.org/1999/xlink" width="106.11" height="81.02" viewBox="0 0 106.11 81.02">
  <defs>
    <clipPath id="clip-newsletter_icon">
      <rect width="106.11" height="81.02"/>
    </clipPath>
  </defs>
  <g id="newsletter_icon" data-name="newsletter icon" clip-path="url(#clip-newsletter_icon)">
    <g id="undraw_Subscriber_re_om92" transform="translate(-456.758 267)">
      <path id="Path_5" data-name="Path 5" d="M645.918,274.341h-.023l-13.414,5.728-18.353,7.837a.592.592,0,0,1-.453,0l-18.935-7.856L581,274.35l-.021-.009h-.023a.819.819,0,0,0-.818.818V310.68a.819.819,0,0,0,.818.818h64.967a.819.819,0,0,0,.818-.818V275.159a.819.819,0,0,0-.818-.818Z" transform="translate(-103.929 -517.309)" fill="#fff"/>
      <path id="Path_6" data-name="Path 6" d="M648.253,176.6a.117.117,0,0,1-.067-.021L615.871,154.07a.586.586,0,0,0-.669,0l-32.082,22.5a.117.117,0,0,1-.134-.191l32.082-22.5a.82.82,0,0,1,.937,0l32.315,22.505a.117.117,0,0,1-.067.213Z" transform="translate(-106.206 -419.331)" fill="#3f3d56"/>
      <path id="Path_7" data-name="Path 7" d="M435.67,35.335l30.615-22.69,30.848,24.3L467.863,54.3l-15.891-3.622Z" transform="translate(43.077 -277.272)" fill="#e6e6e6"/>
      <path id="Path_8" data-name="Path 8" d="M619.168,431.918H604.043a.707.707,0,0,1,0-1.413h15.127a.707.707,0,1,1,0,1.413Z" transform="translate(-122.778 -644.172)" fill="#264de4"/>
      <path id="Path_9" data-name="Path 9" d="M609.469,415.727h-5.426a.707.707,0,0,1,0-1.413h5.429a.707.707,0,0,1,0,1.413Z" transform="translate(-122.778 -631.019)" fill="#264de4"/>
      <path id="Path_10" data-name="Path 10" d="M675.947,203.273a.884.884,0,0,1-.335-.066l-18.881-7.835V170.85a.819.819,0,0,1,.818-.818h36.223a.819.819,0,0,1,.818.818v24.54l-.035.015-18.261,7.8A.89.89,0,0,1,675.947,203.273Z" transform="translate(-166.154 -432.573)" fill="#fff"/>
      <path id="Path_11" data-name="Path 11" d="M675.693,203.079a.943.943,0,0,1-.357-.07l-18.918-7.85V170.6a.877.877,0,0,1,.876-.876h36.223a.877.877,0,0,1,.876.876v24.579L676.062,203A.947.947,0,0,1,675.693,203.079ZM656.652,195l18.773,7.79a.715.715,0,0,0,.545,0l18.189-7.768V170.6a.643.643,0,0,0-.643-.643H657.294a.643.643,0,0,0-.643.643Z" transform="translate(-165.9 -432.32)" fill="#3f3d56"/>
      <path id="Path_12" data-name="Path 12" d="M644.984,274.341h-.023l-13.414,5.728-18.353,7.837a.592.592,0,0,1-.453,0L593.8,280.052l-13.744-5.7-.021-.009h-.023a.819.819,0,0,0-.818.818V310.68a.819.819,0,0,0,.818.818h64.967a.819.819,0,0,0,.818-.818V275.159A.819.819,0,0,0,644.984,274.341Zm.584,36.339a.584.584,0,0,1-.584.584H580.017a.585.585,0,0,1-.584-.584V275.159a.586.586,0,0,1,.562-.584l13.81,5.73,18.845,7.819a.832.832,0,0,0,.636,0l18.261-7.8,13.461-5.748a.586.586,0,0,1,.561.584Z" transform="translate(-103.17 -517.309)" fill="#3f3d56"/>
      <path id="Path_13" data-name="Path 13" d="M683.784,210.793H670.931a.935.935,0,0,1,0-1.87h12.853a.935.935,0,0,1,0,1.87Z" transform="translate(-176.931 -464.167)" fill="#264de4"/>
      <path id="Path_14" data-name="Path 14" d="M677.124,189.62h-6.193a.935.935,0,1,1,0-1.87h6.193a.935.935,0,1,1,0,1.87Z" transform="translate(-176.931 -446.966)" fill="#264de4"/>
      <path id="Path_15" data-name="Path 15" d="M719.81,260.612H700.18a.935.935,0,0,1,0-1.87h19.63a.935.935,0,1,1,0,1.87Z" transform="translate(-200.691 -504.638)" fill="#ccc"/>
      <path id="Path_16" data-name="Path 16" d="M719.81,283.653H700.18a.935.935,0,0,1,0-1.87h19.63a.935.935,0,0,1,0,1.87Z" transform="translate(-200.691 -523.356)" fill="#ccc"/>
      <circle id="Ellipse_2" data-name="Ellipse 2" cx="8.889" cy="8.889" r="8.889" transform="translate(532.563 -251.519)" fill="#264de4"/>
      <path id="Path_17" data-name="Path 17" d="M753.821,117.419,751.161,114l1.547-1.2,1.26,1.62,4.255-4.492,1.423,1.348Z" transform="translate(-213.217 -356.297)" fill="#fff"/>
      <path id="Path_32" data-name="Path 32" d="M478.533,193.32a.375.375,0,0,0-.562.374l.29,2.125a.244.244,0,0,1-.006.094.229.229,0,0,1-.045.082l-1.622,1.922a.367.367,0,0,0-.024.453l0,0a.366.366,0,0,0,.428.141l1.172-.4a.226.226,0,0,1,.227.051.218.218,0,0,1,.07.16l.046,4.175a.372.372,0,0,0,.164.306.376.376,0,0,0,.344.04l8.745-3.344a.375.375,0,0,0,.058-.673l-.119-.071-9.165-5.438Zm-.414.353a.225.225,0,0,1,.338-.224l9.163,5.436.122.072a.225.225,0,0,1-.034.4l-8.745,3.344a.225.225,0,0,1-.3-.207l-.046-4.175a.36.36,0,0,0-.021-.121l8.9,1.023a.15.15,0,0,0,.09-.281l-.023-.01-9.149-3.054a.371.371,0,0,0,0-.083l-.29-2.125Z" transform="translate(-19.738 -451.449)" fill="#f1f1f1"/>
      <path id="Path_33" data-name="Path 33" d="M478.533,193.32a.375.375,0,0,0-.562.374l.29,2.125a.244.244,0,0,1-.006.094.229.229,0,0,1-.045.082l-1.622,1.922a.367.367,0,0,0-.024.453l0,0a.366.366,0,0,0,.428.141l1.172-.4a.226.226,0,0,1,.227.051.218.218,0,0,1,.07.16l.046,4.175a.372.372,0,0,0,.164.306.376.376,0,0,0,.344.04l8.745-3.344a.375.375,0,0,0,.058-.673l-.119-.071-9.165-5.438Zm-.414.353a.225.225,0,0,1,.338-.224l9.163,5.436.122.072a.225.225,0,0,1-.034.4l-8.745,3.344a.225.225,0,0,1-.3-.207l-.046-4.175a.36.36,0,0,0-.021-.121.365.365,0,0,0-.1-.147l-.019-.017h0a.374.374,0,0,0-.358-.066l-1.172.4a.218.218,0,0,1-.257-.086h0a.218.218,0,0,1,.014-.271l1.622-1.922a.353.353,0,0,0,.045-.066h0a.36.36,0,0,0,.029-.071.349.349,0,0,0,.013-.073.369.369,0,0,0,0-.083l-.29-2.125Z" transform="translate(-19.738 -451.449)" fill="#e5e5e5"/>
      <path id="Path_34" data-name="Path 34" d="M486.347,207.143,495.5,210.2l.023.01a.15.15,0,0,1-.09.281l-8.9-1.023-.157-.018.017-.149.024,0h0l9.035,1.037-9.142-3.052h0l-.04-.014.047-.142Z" transform="translate(-27.673 -462.711)" fill="#e5e5e5"/>
      <path id="Path_35" data-name="Path 35" d="M990.135,146.32l-9.166,5.438-.119.071a.375.375,0,0,0,.057.673l8.745,3.344a.376.376,0,0,0,.344-.04.372.372,0,0,0,.164-.306l.046-4.175a.218.218,0,0,1,.07-.16.226.226,0,0,1,.227-.051l1.172.4a.366.366,0,0,0,.428-.141l0,0a.367.367,0,0,0-.024-.453l-1.622-1.922a.23.23,0,0,1-.044-.082.243.243,0,0,1-.006-.094l.29-2.125a.375.375,0,0,0-.562-.374Zm.414.353-.29,2.125a.369.369,0,0,0,0,.083l-9.15,3.054-.023.01a.15.15,0,0,0,.09.281l8.9-1.023a.358.358,0,0,0-.021.121l-.046,4.175a.225.225,0,0,1-.3.207l-8.745-3.345a.225.225,0,0,1-.034-.4l.122-.072,9.162-5.436a.225.225,0,0,1,.338.224Z" transform="translate(-429.308 -413.268)" fill="#f1f1f1"/>
      <path id="Path_36" data-name="Path 36" d="M990.135,146.32l-9.166,5.438-.119.071a.375.375,0,0,0,.057.673l8.745,3.344a.376.376,0,0,0,.344-.04.372.372,0,0,0,.164-.306l.046-4.175a.218.218,0,0,1,.07-.16.226.226,0,0,1,.227-.051l1.172.4a.366.366,0,0,0,.428-.141l0,0a.367.367,0,0,0-.024-.453l-1.622-1.922a.23.23,0,0,1-.044-.082.243.243,0,0,1-.006-.094l.29-2.125a.375.375,0,0,0-.562-.374Zm.414.353-.29,2.125a.369.369,0,0,0,0,.083.349.349,0,0,0,.013.073.357.357,0,0,0,.029.071h0a.353.353,0,0,0,.045.066l1.622,1.922a.218.218,0,0,1,.014.271h0a.218.218,0,0,1-.257.086l-1.172-.4a.374.374,0,0,0-.358.066h0l-.019.017a.366.366,0,0,0-.1.147.361.361,0,0,0-.021.121l-.046,4.175a.225.225,0,0,1-.3.207l-8.745-3.344a.225.225,0,0,1-.034-.4l.122-.072,9.162-5.436a.225.225,0,0,1,.338.224Z" transform="translate(-429.308 -413.268)" fill="#e5e5e5"/>
      <path id="Path_37" data-name="Path 37" d="M991.757,160.131l.047.142-.04.014h0l-9.141,3.052,9.035-1.037h0l.024,0,.017.149-.157.018-8.9,1.023a.15.15,0,0,1-.09-.281l.023-.01,9.149-3.054Z" transform="translate(-430.774 -424.53)" fill="#e5e5e5"/>
      <path id="Path_38" data-name="Path 38" d="M612.258,530.082a.375.375,0,0,0,.015.675l1.951.891a.245.245,0,0,1,.076.055.229.229,0,0,1,.045.081l.758,2.4a.367.367,0,0,0,.37.262h0a.366.366,0,0,0,.348-.287l.29-1.2a.226.226,0,0,1,.164-.164.218.218,0,0,1,.173.027L620,535.01a.374.374,0,0,0,.564-.245l1.847-9.179a.375.375,0,0,0-.538-.408l-.123.063Zm.077.539a.225.225,0,0,1-.008-.405l9.492-4.839.126-.064a.225.225,0,0,1,.323.245l-1.847,9.179a.225.225,0,0,1-.338.147l-3.553-2.192a.358.358,0,0,0-.114-.047l5.623-6.979a.15.15,0,0,0-.189-.226.13.13,0,0,0-.021.014l-7.471,6.1a.369.369,0,0,0-.071-.042l-1.951-.891Z" transform="translate(-129.86 -721.048)" fill="#f1f1f1"/>
      <path id="Path_39" data-name="Path 39" d="M612.258,530.082a.375.375,0,0,0,.015.675l1.951.891a.245.245,0,0,1,.076.055.229.229,0,0,1,.045.081l.758,2.4a.367.367,0,0,0,.37.262h0a.366.366,0,0,0,.348-.287l.29-1.2a.226.226,0,0,1,.164-.164.218.218,0,0,1,.173.027L620,535.01a.374.374,0,0,0,.564-.245l1.847-9.179a.375.375,0,0,0-.538-.408l-.123.063Zm.077.539a.225.225,0,0,1-.008-.405l9.492-4.839.126-.064a.225.225,0,0,1,.323.245l-1.847,9.179a.225.225,0,0,1-.338.147l-3.553-2.192a.36.36,0,0,0-.114-.047.364.364,0,0,0-.175,0l-.024.007h0a.374.374,0,0,0-.247.267l-.29,1.2a.218.218,0,0,1-.21.171h0a.218.218,0,0,1-.222-.157l-.758-2.4a.357.357,0,0,0-.031-.073h0a.37.37,0,0,0-.1-.112.372.372,0,0,0-.071-.042l-1.951-.891Z" transform="translate(-129.86 -721.048)" fill="#e5e5e5"/>
      <path id="Path_40" data-name="Path 40" d="M624.206,532.774l7.471-6.1a.124.124,0,0,1,.021-.014.15.15,0,0,1,.189.226l-5.623,6.979-.1.123-.116-.094.015-.019h0l5.706-7.082-7.465,6.1h0l-.033.026-.095-.116Z" transform="translate(-139.71 -722.268)" fill="#e5e5e5"/>
    </g>
  </g>
</svg>
