<svg xmlns="http://www.w3.org/2000/svg" xmlns:xlink="http://www.w3.org/1999/xlink" width="332" height="48" viewBox="0 0 332 48"><defs><clipPath id="b"><rect width="332" height="48"/></clipPath></defs><g id="a" clip-path="url(#b)"><path d="M-125.812.44q-3.465,0-3.465-3.52V-21.725h-2.53q-2.75,0-2.75-2.585t2.75-2.585h2.53v-.055q0-5.665,2.86-8.5t8.25-3.327l1.87-.165a2.448,2.448,0,0,1,2.09.6,2.57,2.57,0,0,1,.688,1.733,2.973,2.973,0,0,1-.522,1.815,2.1,2.1,0,0,1-1.6.907l-.77.055a7.173,7.173,0,0,0-4.565,1.6,5.551,5.551,0,0,0-1.43,4.18V-26.9h4.675q2.75,0,2.75,2.585t-2.75,2.585H-122.4V-3.08Q-122.4.44-125.812.44Zm18.26,0q-3.52,0-3.52-3.52V-23.87q0-3.465,3.355-3.465t3.355,3.465v1.7q1.98-4.73,8.47-5.28,2.365-.275,2.64,2.695.275,2.915-2.86,3.245l-1.21.11q-6.765.66-6.765,6.93V-3.08Q-104.087.44-107.552.44Zm29.865.11a14.758,14.758,0,0,1-7.26-1.705,11.884,11.884,0,0,1-4.785-4.868,15.479,15.479,0,0,1-1.705-7.452A15.317,15.317,0,0,1-89.732-20.9a11.926,11.926,0,0,1,4.785-4.84,14.758,14.758,0,0,1,7.26-1.7,14.758,14.758,0,0,1,7.26,1.7,11.926,11.926,0,0,1,4.785,4.84,15.317,15.317,0,0,1,1.705,7.425,15.479,15.479,0,0,1-1.705,7.452,11.884,11.884,0,0,1-4.785,4.868A14.758,14.758,0,0,1-77.687.55Zm0-5.225A6.142,6.142,0,0,0-72.737-6.9q1.87-2.228,1.87-6.572,0-4.4-1.87-6.573a6.209,6.209,0,0,0-4.95-2.173,6.209,6.209,0,0,0-4.95,2.173q-1.87,2.172-1.87,6.573,0,4.345,1.87,6.572A6.142,6.142,0,0,0-77.687-4.675ZM-54.862.44q-3.41,0-3.41-3.52V-23.87q0-3.465,3.355-3.465t3.355,3.465v1.155a9.143,9.143,0,0,1,3.713-3.52,11.255,11.255,0,0,1,5.252-1.21q9.515,0,9.515,11.055V-3.08q0,3.52-3.41,3.52-3.465,0-3.465-3.52V-16.06a7.131,7.131,0,0,0-1.182-4.565,4.474,4.474,0,0,0-3.658-1.43,6.3,6.3,0,0,0-4.812,1.9A7.04,7.04,0,0,0-51.4-15.125V-3.08Q-51.4.44-54.862.44Zm41.085.11q-10.67,0-10.67-10.56V-21.725h-2.86q-2.75,0-2.75-2.585t2.75-2.585h2.86V-31.9q0-3.465,3.465-3.465,3.41,0,3.41,3.465V-26.9h5.83q2.75,0,2.75,2.585t-2.75,2.585h-5.83V-10.4a5.869,5.869,0,0,0,1.155,3.96,4.731,4.731,0,0,0,3.74,1.32,7.385,7.385,0,0,0,1.65-.165A10.249,10.249,0,0,1-9.762-5.5a1.289,1.289,0,0,1,1.1.412,2.889,2.889,0,0,1,.44,1.9A5.012,5.012,0,0,1-8.58-1.238,2.075,2.075,0,0,1-9.872-.055a14.905,14.905,0,0,1-1.87.413A12.561,12.561,0,0,1-13.778.55ZM9.157.5A10.875,10.875,0,0,1,3.6-.907,8.6,8.6,0,0,1,.027-4.785v2.86q0,2.31-2.2,2.31t-2.2-2.31V-36.9a1.969,1.969,0,0,1,2.2-2.255A1.993,1.993,0,0,1,.082-36.9V-22.11a8.571,8.571,0,0,1,3.575-3.74,10.936,10.936,0,0,1,5.5-1.375A11.478,11.478,0,0,1,15.4-25.548a11.012,11.012,0,0,1,4.125,4.785,17.288,17.288,0,0,1,1.457,7.4,17.146,17.146,0,0,1-1.457,7.343A11.192,11.192,0,0,1,15.4-1.21,11.338,11.338,0,0,1,9.157.5ZM8.222-3.08a7.457,7.457,0,0,0,6-2.667q2.255-2.668,2.255-7.618,0-5.005-2.255-7.645a7.491,7.491,0,0,0-6-2.64,7.491,7.491,0,0,0-5.995,2.64Q-.028-18.37-.028-13.365q0,4.95,2.255,7.618A7.457,7.457,0,0,0,8.222-3.08ZM38.8.5A12.966,12.966,0,0,1,32.037-1.21,11.485,11.485,0,0,1,27.61-6.023a16.118,16.118,0,0,1-1.567-7.343,16.118,16.118,0,0,1,1.567-7.342,11.485,11.485,0,0,1,4.428-4.812A12.966,12.966,0,0,1,38.8-27.225,13,13,0,0,1,45.54-25.52a11.431,11.431,0,0,1,4.455,4.813,16.118,16.118,0,0,1,1.568,7.342,16.118,16.118,0,0,1-1.568,7.343A11.431,11.431,0,0,1,45.54-1.21,13,13,0,0,1,38.8.5Zm0-3.575a7.457,7.457,0,0,0,6-2.667q2.255-2.668,2.255-7.618,0-5.005-2.255-7.645a7.491,7.491,0,0,0-6-2.64,7.471,7.471,0,0,0-6.022,2.64q-2.228,2.64-2.228,7.645,0,4.95,2.228,7.618A7.437,7.437,0,0,0,38.8-3.08ZM66.688.5A10.973,10.973,0,0,1,61.765-.578,8.706,8.706,0,0,1,58.327-3.52,7.293,7.293,0,0,1,57.063-7.7a6.711,6.711,0,0,1,1.512-4.62,9.039,9.039,0,0,1,5.005-2.447,48.093,48.093,0,0,1,9.542-.743h1.76v-1.705q0-3.41-1.4-4.923A5.857,5.857,0,0,0,69-23.65a15.73,15.73,0,0,0-3.878.495,18.467,18.467,0,0,0-4.042,1.6,1.723,1.723,0,0,1-1.568.193,1.682,1.682,0,0,1-.88-.99,2.127,2.127,0,0,1,0-1.43A1.9,1.9,0,0,1,59.7-24.915a20.539,20.539,0,0,1,4.757-1.76A20.276,20.276,0,0,1,69-27.225q5.17,0,7.673,2.53t2.5,7.865V-1.925q0,2.31-2.035,2.31-2.145,0-2.145-2.31v-2.7A8.3,8.3,0,0,1,71.775-.88,9.309,9.309,0,0,1,66.688.5ZM67.4-2.86a6.976,6.976,0,0,0,5.39-2.283,8.26,8.26,0,0,0,2.09-5.8V-12.6H73.177a46.388,46.388,0,0,0-7.012.413,6.527,6.527,0,0,0-3.575,1.43,3.753,3.753,0,0,0-1.018,2.778A4.761,4.761,0,0,0,63.14-4.29,6.084,6.084,0,0,0,67.4-2.86ZM89.677.385a2.018,2.018,0,0,1-2.255-2.31V-24.86q0-2.255,2.145-2.255a1.969,1.969,0,0,1,2.2,2.255v2.915a8.1,8.1,0,0,1,3.41-3.878,11.54,11.54,0,0,1,5.5-1.457q1.76-.165,1.87,1.76.165,1.925-1.98,2.145l-.88.11a8.747,8.747,0,0,0-5.775,2.392,7.8,7.8,0,0,0-1.98,5.638v13.31A2.018,2.018,0,0,1,89.677.385Zm27.28.11a11.338,11.338,0,0,1-6.243-1.705,11.192,11.192,0,0,1-4.125-4.813,17.146,17.146,0,0,1-1.458-7.343,17.288,17.288,0,0,1,1.458-7.4,11.012,11.012,0,0,1,4.125-4.785,11.478,11.478,0,0,1,6.243-1.678,10.9,10.9,0,0,1,5.527,1.375,8.543,8.543,0,0,1,3.548,3.8V-36.9a1.993,1.993,0,0,1,2.255-2.255,1.969,1.969,0,0,1,2.2,2.255v34.98q0,2.31-2.2,2.31t-2.2-2.31v-2.86a8.974,8.974,0,0,1-3.6,3.878A10.726,10.726,0,0,1,116.957.5Zm.935-3.575a7.457,7.457,0,0,0,6-2.667q2.255-2.668,2.255-7.618,0-5.005-2.255-7.645a7.491,7.491,0,0,0-6-2.64,7.471,7.471,0,0,0-6.022,2.64q-2.228,2.64-2.228,7.645,0,4.95,2.228,7.618A7.437,7.437,0,0,0,117.892-3.08Z" transform="translate(201.557 43.16)"/><g transform="translate(5.418 5.289)"><path d="M36.229,33.861l-13-12,13-12" transform="translate(-23.647 -9.49)" fill="none" stroke="#264de4" stroke-linecap="round" stroke-linejoin="round" stroke-width="9.7"/></g><g transform="translate(27.334 17.536)"><path d="M23.313,33.614l13-12-13-12" transform="translate(-23.647 -9.49)" fill="none" stroke="#264de4" stroke-linecap="round" stroke-linejoin="round" stroke-width="9.7"/></g></g></svg>